<?xml version="1.0" standalone="no"?>
<!DOCTYPE svg PUBLIC "-//W3C//DTD SVG 20010904//EN"
 "http://www.w3.org/TR/2001/REC-SVG-20010904/DTD/svg10.dtd">
<svg version="1.0" xmlns="http://www.w3.org/2000/svg"
 width="449.000000pt" height="403.000000pt" viewBox="0 0 449.000000 403.000000"
 preserveAspectRatio="xMidYMid meet">

<g transform="translate(0.000000,403.000000) scale(0.100000,-0.100000)"
fill="#000000" stroke="none">
<path d="M1575 2441 c-70 -18 -134 -71 -171 -141 -17 -31 -19 -65 -22 -326 -2
-182 1 -307 7 -331 38 -141 179 -221 314 -178 63 20 127 72 127 104 0 11 -11
28 -25 37 -25 16 -27 16 -73 -17 -40 -29 -55 -34 -104 -34 -66 0 -103 22 -130
76 -16 30 -18 68 -18 324 0 272 1 292 20 323 50 82 181 98 239 28 33 -39 106
-2 82 42 -37 68 -160 115 -246 93z"/>
<path d="M1951 2431 c-20 -20 -21 -31 -21 -181 0 -147 2 -162 20 -180 11 -11
25 -20 30 -20 6 0 19 9 30 20 18 18 20 33 20 150 l0 130 73 0 c83 0 125 -19
157 -72 29 -48 29 -208 0 -256 -36 -59 -71 -72 -192 -72 -83 0 -110 -3 -122
-16 -24 -23 -24 -445 0 -468 21 -21 47 -20 67 2 15 16 17 45 17 200 l0 182 58
0 59 0 38 -102 c109 -293 107 -288 132 -294 25 -7 63 18 63 40 0 6 -31 95 -70
196 l-69 185 45 39 c74 63 88 101 88 236 0 129 -12 167 -76 226 -59 56 -93 67
-214 72 -104 4 -113 3 -133 -17z"/>
<path d="M2500 2430 c-19 -19 -20 -33 -20 -484 0 -409 2 -466 16 -480 21 -21
47 -20 67 2 15 16 17 52 18 293 0 245 2 269 14 229 7 -25 38 -137 69 -250 31
-113 60 -222 66 -242 13 -47 51 -62 80 -32 10 11 42 109 75 229 31 116 65 239
75 275 l18 65 1 -277 c1 -237 3 -279 17 -292 21 -21 47 -20 67 2 15 17 17 65
17 480 0 449 -1 463 -20 482 -49 49 -63 23 -141 -255 -39 -138 -85 -301 -102
-362 -17 -62 -34 -113 -37 -113 -3 0 -20 51 -37 113 -17 61 -63 224 -102 362
-78 278 -92 304 -141 255z"/>
</g>
</svg>
